<?xml version="1.0" encoding="UTF-8" standalone="no"?>
<svg
   width="64"
   version="1.1"
   height="64"
   id="svg40"
   sodipodi:docname="user-desktop.svg"
   inkscape:version="1.4.2 (unknown)"
   xmlns:inkscape="http://www.inkscape.org/namespaces/inkscape"
   xmlns:sodipodi="http://sodipodi.sourceforge.net/DTD/sodipodi-0.dtd"
   xmlns="http://www.w3.org/2000/svg"
   xmlns:svg="http://www.w3.org/2000/svg"
   xmlns:rdf="http://www.w3.org/1999/02/22-rdf-syntax-ns#"
   xmlns:cc="http://creativecommons.org/ns#"
   xmlns:dc="http://purl.org/dc/elements/1.1/">
  <style
     type="text/css"
     id="current-color-scheme">.ColorScheme-Highlight { color:#5294e2; }
    </style>
  <metadata
     id="metadata44">
    <rdf:RDF>
      <cc:Work
         rdf:about="">
        <dc:format>image/svg+xml</dc:format>
        <dc:type
           rdf:resource="http://purl.org/dc/dcmitype/StillImage" />
      </cc:Work>
    </rdf:RDF>
  </metadata>
  <sodipodi:namedview
     pagecolor="#ffffff"
     bordercolor="#666666"
     borderopacity="1"
     objecttolerance="10"
     gridtolerance="10"
     guidetolerance="10"
     inkscape:pageopacity="0"
     inkscape:pageshadow="2"
     inkscape:window-width="1920"
     inkscape:window-height="994"
     id="namedview42"
     showgrid="true"
     inkscape:zoom="6.9384856"
     inkscape:cx="29.761538"
     inkscape:cy="22.41123"
     inkscape:window-x="0"
     inkscape:window-y="0"
     inkscape:window-maximized="1"
     inkscape:current-layer="layer1"
     inkscape:document-rotation="0"
     showguides="true"
     inkscape:lockguides="false"
     inkscape:showpageshadow="2"
     inkscape:pagecheckerboard="0"
     inkscape:deskcolor="#d1d1d1">
    <inkscape:grid
       type="xygrid"
       id="grid975"
       originx="0"
       originy="0"
       spacingy="1"
       spacingx="1"
       units="px"
       visible="true" />
  </sodipodi:namedview>
  <defs
     id="defs5455" />
  <g
     inkscape:label="Capa 1"
     inkscape:groupmode="layer"
     id="layer1"
     transform="translate(-384.57143,-483.798)">
    <g
       id="g1">
      <path
         id="path4"
         d="m 445.57143,529.9798 v 2.62257 c 0,3.6629 -2.14806,7.19561 -5.2727,7.19561 h -47.45456 c -3.12468,0 -5.27274,-2.44198 -5.27274,-6.10488 v -3.7133 z"
         style="fill:#4d5865;fill-opacity:1;fill-rule:nonzero;stroke-width:1.37978"
         sodipodi:nodetypes="csssscc" />
      <path
         id="path6"
         d="m 445.57143,497.25256 v 32.72724 h -58 v -32.72724 c 0,-3.27273 1.99999,-5.45454 5,-5.45454 l 48,-2e-5 c 3.00001,0 5,2.18183 5,5.45456 z"
         style="stroke-width:1.30613;fill-rule:nonzero;fill-opacity:1;fill:currentColor;"
         sodipodi:nodetypes="sccssss"
         class="ColorScheme-Highlight" />
      <path
         id="path27"
         d="m 435.57143,491.798 c -0.0209,7.33203 -48,12.21994 -48,33.88228 v -28.42772 c 0,-2.93878 2,-5.45454 5,-5.45454 z"
         style="fill:#bfbfbf;fill-opacity:0.34999999;fill-rule:nonzero;stroke-width:1.30613"
         sodipodi:nodetypes="ccssc" />
      <path
         inkscape:connector-curvature="0"
         id="path4218-3-7"
         d="m 432.95855,532.88181 c -0.19781,0.15189 -0.45479,0.30748 -0.67212,0.41328 l 0.0924,0.39684 c 0.1766,-0.063 0.33855,-0.16868 0.53561,-0.30719 v 3.57671 h 0.43984 v -4.07969 h -0.3943 z"
         style="fill:#d8f0f3;fill-opacity:1;stroke-width:1.24861" />
      <path
         inkscape:connector-curvature="0"
         id="path4220-0-5"
         d="m 434.15251,533.15555 0.14606,0.40794 c 0.20685,-0.23504 0.51557,-0.33525 0.82378,-0.33525 0.41949,0 0.65201,0.2572 0.65201,0.70959 v 0.0301 c -7.7e-4,0.31827 -0.19181,0.63157 -0.48008,0.98365 l -1.27369,1.56495 0.0573,0.44715 h 2.15814 l 0.034,-0.41925 h -1.71335 l 1.04113,-1.22957 c 0.40435,-0.48065 0.65194,-0.87186 0.65708,-1.38609 v -0.002 c 0,-0.67071 -0.42452,-1.11233 -1.09682,-1.11233 -0.48007,0 -0.7935,0.14433 -1.00064,0.35781 z"
         style="fill:#d8f0f3;fill-opacity:1;stroke-width:1.24861" />
      <path
         inkscape:connector-curvature="0"
         id="path4222-7-3"
         d="m 436.91167,537.02869 h 0.51055 v -0.63711 h -0.51055 z m 0,-2.50375 h 0.51055 v -0.63166 h -0.51055 z"
         style="fill:#d8f0f3;fill-opacity:1;stroke-width:1.24861" />
      <path
         inkscape:connector-curvature="0"
         id="path4224-8-5"
         d="m 439.79887,535.83821 c 0,0.49751 -0.32858,0.77127 -0.81385,0.77127 -0.37406,0 -0.63166,-0.13513 -0.81865,-0.29619 l -0.14186,0.39685 c 0.1377,0.14425 0.48512,0.31312 0.96545,0.31312 0.71757,0 1.24334,-0.45272 1.24334,-1.17916 0,-0.57577 -0.28787,-0.94464 -0.73786,-1.05645 0.39918,-0.13505 0.6469,-0.45264 0.6469,-0.97803 0,-0.65405 -0.51052,-1.01162 -1.0564,-1.01162 -0.51045,0 -0.839,0.12271 -1.06143,0.31313 l 0.14186,0.39683 c 0.19744,-0.17351 0.48504,-0.2911 0.82368,-0.2911 0.43472,0 0.67742,0.20184 0.67742,0.65403 0,0.64265 -0.53589,0.71541 -1.10192,0.71541 v 0.40239 c 0.68739,0 1.23332,0.11835 1.23332,0.84951 z"
         style="fill:#d8f0f3;fill-opacity:1;stroke-width:1.24861" />
      <path
         inkscape:connector-curvature="0"
         id="path4226-6-6"
         d="m 442.41732,533.49647 v 2.05663 h -1.2331 z m 0.83401,2.45345 0.0351,-0.39682 h -0.45475 v -2.67129 h -0.45993 l -1.62241,2.64916 v 0.41895 h 1.6678 v 1.01156 h 0.41453 v -1.01156 h 0.41957 z"
         style="fill:#d8f0f3;fill-opacity:1;stroke-width:1.24861" />
      <path
         d="m 394.63194,534.79801 c 0,1.10512 -0.89496,1.99999 -2.00004,1.99999 -1.10411,0 -1.99996,-0.89487 -1.99996,-1.99999 0,-1.10415 0.89585,-2.00001 1.99996,-2.00001 1.10508,0 2.00004,0.89586 2.00004,2.00001 z"
         id="path72-3"
         style="color:#eff0f1;fill:#d8f0f3;fill-opacity:1;stroke-width:0.0238091"
         class="ColorScheme-Text " />
      <path
         style="fill:#d8f0f3;fill-opacity:1;stroke-width:1"
         d="m 407.03003,536.798 c -0.94905,0 -1.4586,0.61597 -1.4586,1.50956 v 1.49044 h 20 v -1.47572 c 0,-0.90628 -0.54046,-1.52428 -1.43237,-1.52428 z"
         id="path3"
         sodipodi:nodetypes="csccscc" />
    </g>
  </g>
</svg>
