<?xml version="1.0" encoding="UTF-8" standalone="no"?>
<svg
   viewBox="0 0 22 22"
   version="1.1"
   id="svg1"
   sodipodi:docname="user-home.svg"
   inkscape:version="1.4.2 (unknown)"
   xmlns:inkscape="http://www.inkscape.org/namespaces/inkscape"
   xmlns:sodipodi="http://sodipodi.sourceforge.net/DTD/sodipodi-0.dtd"
   xmlns="http://www.w3.org/2000/svg"
   xmlns:svg="http://www.w3.org/2000/svg">
  <sodipodi:namedview
     id="namedview1"
     pagecolor="#ffffff"
     bordercolor="#000000"
     borderopacity="0.25"
     inkscape:showpageshadow="2"
     inkscape:pageopacity="0.0"
     inkscape:pagecheckerboard="0"
     inkscape:deskcolor="#d1d1d1"
     inkscape:zoom="35.227273"
     inkscape:cx="11"
     inkscape:cy="11.028387"
     inkscape:window-width="1920"
     inkscape:window-height="998"
     inkscape:window-x="0"
     inkscape:window-y="0"
     inkscape:window-maximized="1"
     inkscape:current-layer="svg1" />
  <defs
     id="defs3051">
    <style
       type="text/css"
       id="current-color-scheme">.ColorScheme-Text {color:#fcfcfc;}</style>
  </defs>
  <path
     style="stroke:none;fill-opacity:1;fill:currentColor;"
     d="M 11,3 10.292969,3.707031 3,11 3.707031,11.707031 4,11.414062 C 4,11.414062 4,13 4,16 c 0,3 3,3 3,3 h 3 3 2 c 0,0 3,0 3,-3 0,-3 0,-4.585938 0,-4.585938 L 18.292969,11.707031 19,11 16,8 V 5 H 13 L 11.707031,3.707031 11,3 m 0,1.414063 6,5.999999 c 0,0 0,3.585938 0,5.585938 0,2 -2,2 -2,2 l -2,0 V 13 H 10 9 v 5 H 7 c 0,0 -2,0 -2,-2 0,-2 0,-5.585938 0,-5.585938 l 6,-5.999999"
     class="ColorScheme-Text"
     id="path1" />
</svg>
