<?xml version="1.0" encoding="UTF-8" standalone="no"?>
<svg
   height="22"
   width="22"
   version="1.1"
   id="svg1"
   sodipodi:docname="battery-level-10-symbolic.svg"
   inkscape:version="1.4.2 (unknown)"
   xmlns:inkscape="http://www.inkscape.org/namespaces/inkscape"
   xmlns:sodipodi="http://sodipodi.sourceforge.net/DTD/sodipodi-0.dtd"
   xmlns="http://www.w3.org/2000/svg"
   xmlns:svg="http://www.w3.org/2000/svg">
  <sodipodi:namedview
     id="namedview1"
     pagecolor="#ffffff"
     bordercolor="#000000"
     borderopacity="0.25"
     inkscape:showpageshadow="2"
     inkscape:pageopacity="0.0"
     inkscape:pagecheckerboard="0"
     inkscape:deskcolor="#d1d1d1"
     showgrid="true"
     inkscape:zoom="35.136364"
     inkscape:cx="11"
     inkscape:cy="11.02846"
     inkscape:current-layer="svg1">
    <inkscape:grid
       id="grid1"
       units="px"
       originx="0"
       originy="0"
       spacingx="1"
       spacingy="1"
       empcolor="#0099e5"
       empopacity="0.30196078"
       color="#0099e5"
       opacity="0.14902"
       empspacing="5"
       enabled="true"
       visible="true" />
  </sodipodi:namedview>
  <defs
     id="defs1">
    <style
       type="text/css"
       id="current-color-scheme">.ColorScheme-Text {color:#fcfcfc;}</style>
  </defs>
  <path
     style="fill:currentColor;fill-opacity:1;stroke:none"
     class="ColorScheme-Text"
     d="m 3,8 v 6 c 0,1 1,1 1,1 H 4.5 V 7 H 4 C 4,7 3,7 3,8 Z M 1,8 v 6 c 0,0 0,3 3,3 h 13 c 3,0 3,-3 3,-3 v -1 h 0.5 c 0.277,0 0.5,-0.223 0.5,-0.5 v -3 C 21,9.223 20.777,9 20.5,9 H 20 V 8 C 20,8 20,5 17,5 H 4 C 1,5 1,8 1,8 Z M 2,8 C 2,8 2,6 4,6 h 13 c 2,0 2,2 2,2 v 6 c 0,0 0,2 -2,2 H 4 C 2,16 2,14 2,14 Z"
     id="path1"
     sodipodi:nodetypes="ssccccsccssccssssccssccssccsscc" />
</svg>
