<?xml version="1.0" encoding="UTF-8" standalone="no"?>
<svg
   width="22"
   height="22"
   version="1.1"
   id="svg1"
   sodipodi:docname="network-wired-no-route.svg"
   inkscape:version="1.4.2 (unknown)"
   xmlns:inkscape="http://www.inkscape.org/namespaces/inkscape"
   xmlns:sodipodi="http://sodipodi.sourceforge.net/DTD/sodipodi-0.dtd"
   xmlns="http://www.w3.org/2000/svg"
   xmlns:svg="http://www.w3.org/2000/svg">
  <defs
     id="defs1" />
  <sodipodi:namedview
     id="namedview1"
     pagecolor="#a1a1a1"
     bordercolor="#999999"
     borderopacity="1"
     inkscape:showpageshadow="2"
     inkscape:pageopacity="0"
     inkscape:pagecheckerboard="0"
     inkscape:deskcolor="#d1d1d1"
     inkscape:zoom="24.491608"
     inkscape:cx="11.350827"
     inkscape:cy="8.5539504"
     inkscape:window-width="1920"
     inkscape:window-height="994"
     inkscape:window-x="0"
     inkscape:window-y="0"
     inkscape:window-maximized="1"
     inkscape:current-layer="svg1"
     showgrid="true">
    <inkscape:grid
       id="grid1"
       units="px"
       originx="0"
       originy="0"
       spacingx="1"
       spacingy="1"
       empcolor="#0099e5"
       empopacity="0.30196078"
       color="#0099e5"
       opacity="0.14902"
       empspacing="5"
       dotted="false"
       gridanglex="30"
       gridanglez="30"
       visible="true" />
  </sodipodi:namedview>
  <style
     type="text/css"
     id="current-color-scheme">.ColorScheme-Text { color:#fcfcfc; }
.ColorScheme-Background { color:#eff0f1; }
.ColorScheme-Highlight { color:#3498db; }
.ColorScheme-ViewText { color:#31363b; }
.ColorScheme-ViewBackground { color:#fcfcfc; }
.ColorScheme-ViewHover { color:#93cee9; }
.ColorScheme-ViewFocus { color:#3daee9; }
.ColorScheme-ButtonText { color:#31363b; }
.ColorScheme-ButtonBackground { color:#eff0f1; }
.ColorScheme-ButtonHover { color:#93cee9; }
.ColorScheme-ButtonFocus { color:#3daee9; }
.ColorScheme-NegativeText { color: #e74c3c; }
</style>
  <g
     id="g1">
    <path
       style="fill:currentColor;fill-opacity:1;stroke:none;stroke-width:0.99922"
       d="m 5.0001995,3 c -1,0 -2,1 -2,2 v 8 c 0,1 1.04598,2 2.02184,2.00007 L 8.8161095,15 c 0,0 0,1 0.9984405,1 v 0 1 H 3.5243795 c -0.69891,0 -0.69891,1 0,1 H 9.81455 c 0,0 0,1 0.99844,1 v 0 c 0.99844,0 0.99844,-1 0.99844,-1 h 5.8908 c 0.798749,0 0.798749,-1 0,-1 h -5.8908 v -1 c 0.99844,0 0.99844,-1 0.99844,-1 v 0 0 0 0 0 l -1.0234,-1 V 4 c 0.69891,0 0.69891,-1 0,-1 z m 0.52106,1 h 5.2667705 0.99844 v 10 l 1.0234,1 h 0.97348 c 0.69891,0 0.69891,-1 0,-1 l -8.3905705,10e-6 C 4.5485995,14 4.0001995,13.49345 4.0001995,12.5 v -7 c 0,-1 0.52262,-1.5 1.52106,-1.5 z"
       id="rect4144-9-6-6"
       class="ColorScheme-Text "
       sodipodi:nodetypes="ccccccccccccccccccccccccccccccccccccccc" />
    <path
       class="ColorScheme-Text "
       d="m 15.006439,2 c -0.41602,0 -1.00624,0.5 -1.00624,1 v 3 c 0,0.5 0.59022,1 1.00624,1 h 0.99376 v 2 h 1 V 9 H 16 v 0 h 1 1.99e-4 V 7 h 1.00156 c 0.49922,0 0.99844,-0.5 0.99844,-1 V 3 c 0,-0.5 -0.49922,-1 -0.99844,-1 z m -0.006,1 H 18.002 18 v 2 1 h -3 l 0.006,-1 z"
       stroke-opacity="0"
       stroke-width="0.334742"
       id="path5-3-2"
       style="fill:currentColor;fill-opacity:1"
       sodipodi:nodetypes="sssccccccccccssssscccccccc" />
  </g>
  <path
     class="ColorScheme-Text "
     d="m 16.53458,9.5 c 0.575733,0 1.042977,0.1714963 1.403473,0.512736 0.360492,0.335121 0.539854,0.764731 0.539854,1.289727 0,0.227494 -0.0595,0.458488 -0.179362,0.692982 -0.120748,0.233612 -0.227495,0.399861 -0.321993,0.501361 -0.122479,0.128101 -0.249423,0.251838 -0.38062,0.370996 l -0.0455,0.0481 c -0.384989,0.347367 -0.578366,0.692984 -0.578366,1.041228 v 0.380612 h -0.892474 v -0.446238 c 0,-0.285241 0.0595,-0.527612 0.179373,-0.729729 0.119868,-0.20912 0.332493,-0.453237 0.635235,-0.731481 0.171496,-0.157496 0.290493,-0.274745 0.360491,-0.350871 0.0761,-0.08225 0.148746,-0.191621 0.218743,-0.330742 0.0761,-0.145246 0.113747,-0.294867 0.113747,-0.446236 0,-0.290492 -0.09538,-0.524987 -0.284373,-0.701734 -0.183746,-0.176749 -0.43924,-0.26687 -0.768229,-0.26687 -0.544235,0 -0.916108,0.304492 -1.119101,0.911725 L 14.6,10.904348 c 0.132996,-0.361372 0.361373,-0.684231 0.683364,-0.969474 0.32899,-0.290497 0.74548,-0.434869 1.251216,-0.434869 z m -0.009,5.710119 c 0.183746,0 0.335118,0.063 0.454989,0.188994 0.126872,0.126874 0.189871,0.279122 0.189871,0.455869 0,0.176745 -0.063,0.328991 -0.189871,0.454987 -0.119871,0.126865 -0.271243,0.189863 -0.454989,0.189863 -0.359434,0.0082 -0.652926,-0.28542 -0.644858,-0.64485 -0.0076,-0.359232 0.285634,-0.652403 0.644858,-0.644863 z"
     fill="currentColor"
     id="path1"
     style="stroke-width:0.999995" />
</svg>
