<?xml version="1.0" encoding="UTF-8" standalone="no"?>
<svg
   viewBox="0 0 22 22"
   version="1.1"
   id="svg1"
   sodipodi:docname="folder-music-symbolic.svg"
   inkscape:version="1.4.2 (unknown)"
   xmlns:inkscape="http://www.inkscape.org/namespaces/inkscape"
   xmlns:sodipodi="http://sodipodi.sourceforge.net/DTD/sodipodi-0.dtd"
   xmlns="http://www.w3.org/2000/svg"
   xmlns:svg="http://www.w3.org/2000/svg">
  <sodipodi:namedview
     id="namedview1"
     pagecolor="#ffffff"
     bordercolor="#000000"
     borderopacity="0.25"
     inkscape:showpageshadow="2"
     inkscape:pageopacity="0.0"
     inkscape:pagecheckerboard="0"
     inkscape:deskcolor="#d1d1d1"
     inkscape:zoom="35.318182"
     inkscape:cx="11"
     inkscape:cy="11"
     inkscape:window-width="1920"
     inkscape:window-height="1000"
     inkscape:window-x="0"
     inkscape:window-y="0"
     inkscape:window-maximized="1"
     inkscape:current-layer="svg1" />
  <defs
     id="defs3051">
    <style
       type="text/css"
       id="current-color-scheme"> .ColorScheme-Text { color:#eff0f1; } </style>
  </defs>
  <path
     style="opacity:1;fill:currentColor;fill-opacity:1;stroke:none"
     d="m 7,6 v 8.503906 C 6.567749,14.177956 6.0413714,14.001126 5.5,14 4.1192881,14 3,15.119288 3,16.5 3,17.880712 4.1192881,19 5.5,19 6.8807119,19 8,17.880712 8,16.5 V 8 c 0,0 0,-2 2,-2 2,0 4,0 6,0 2,0 2,2 2,2 v 4.503906 C 17.567749,12.177956 17.041371,12.001126 16.5,12 15.119288,12 14,13.119288 14,14.5 14,15.880712 15.119288,17 16.5,17 17.880712,17 19,15.880712 19,14.5 V 6 C 19,6 19,3 16,3 13,3 13,3 10,3 7,3 7,6 7,6 Z"
     class="ColorScheme-Text"
     id="path4867" />
</svg>
