<?xml version="1.0" encoding="UTF-8" standalone="no"?>
<svg
   width="64"
   height="64"
   version="1"
   id="svg5"
   sodipodi:docname="ddaynormandy.svg"
   inkscape:version="1.4.3 (unknown)"
   xmlns:inkscape="http://www.inkscape.org/namespaces/inkscape"
   xmlns:sodipodi="http://sodipodi.sourceforge.net/DTD/sodipodi-0.dtd"
   xmlns="http://www.w3.org/2000/svg"
   xmlns:svg="http://www.w3.org/2000/svg">
  <defs
     id="defs5" />
  <sodipodi:namedview
     id="namedview5"
     pagecolor="#ffffff"
     bordercolor="#000000"
     borderopacity="0.25"
     inkscape:showpageshadow="2"
     inkscape:pageopacity="0.0"
     inkscape:pagecheckerboard="0"
     inkscape:deskcolor="#d1d1d1"
     inkscape:zoom="11.828125"
     inkscape:cx="31.957728"
     inkscape:cy="32"
     inkscape:window-width="1920"
     inkscape:window-height="994"
     inkscape:window-x="0"
     inkscape:window-y="0"
     inkscape:window-maximized="1"
     inkscape:current-layer="svg5" />
  <rect
     style="opacity:0.2"
     width="56"
     height="56"
     x="4"
     y="5"
     rx="2.8"
     ry="2.8"
     id="rect1" />
  <rect
     style="fill:#89a02c"
     width="56"
     height="56"
     x="4"
     y="4"
     rx="2.8"
     ry="2.8"
     id="rect2" />
  <path
     style="opacity:0.1"
     d="M 6.8007812 4 C 5.2495813 4 4 5.2495813 4 6.8007812 L 4 57.199219 C 4 58.750419 5.2495813 60 6.8007812 60 L 57.199219 60 C 58.750419 60 60 58.750419 60 57.199219 L 60 6.8007812 C 60 5.2495813 58.750419 4 57.199219 4 L 6.8007812 4 z M 10 10 L 54 10 L 54 54 L 10 54 L 10 10 z"
     id="path2" />
  <path
     style="opacity:0.1"
     d="M 32,13 38.489358,26.167184 53,28.27864 42.5,38.527864 44.978714,53 32,46.167186 19.021286,53 21.499998,38.527864 11,28.27864 25.510642,26.167184 Z"
     id="path3" />
  <path
     style="fill:#373e48"
     d="M 32,12 38.489358,25.167184 53,27.27864 42.5,37.527864 44.978714,52 32,45.167186 19.021286,52 21.499998,37.527864 11,27.27864 25.510642,25.167184 Z"
     id="path4" />
  <path
     style="opacity:0.1;fill:#ffffff"
     d="M 6.8007812 4 C 5.2495812 4 4 5.2495812 4 6.8007812 L 4 7.8007812 C 4 6.2495813 5.2495812 5 6.8007812 5 L 57.199219 5 C 58.750419 5 60 6.2495812 60 7.8007812 L 60 6.8007812 C 60 5.2495813 58.750419 4 57.199219 4 L 6.8007812 4 z"
     id="path5" />
</svg>
