<?xml version="1.0" encoding="UTF-8" standalone="no"?>
<svg
   width="64"
   height="64"
   version="1"
   id="svg11"
   sodipodi:docname="gnome-appfolders-manager.svg"
   inkscape:version="1.4.3 (unknown)"
   xmlns:inkscape="http://www.inkscape.org/namespaces/inkscape"
   xmlns:sodipodi="http://sodipodi.sourceforge.net/DTD/sodipodi-0.dtd"
   xmlns="http://www.w3.org/2000/svg"
   xmlns:svg="http://www.w3.org/2000/svg">
  <defs
     id="defs11" />
  <sodipodi:namedview
     id="namedview11"
     pagecolor="#ffffff"
     bordercolor="#000000"
     borderopacity="0.25"
     inkscape:showpageshadow="2"
     inkscape:pageopacity="0.0"
     inkscape:pagecheckerboard="0"
     inkscape:deskcolor="#d1d1d1"
     inkscape:zoom="11.828125"
     inkscape:cx="32"
     inkscape:cy="32"
     inkscape:window-width="1920"
     inkscape:window-height="994"
     inkscape:window-x="0"
     inkscape:window-y="0"
     inkscape:window-maximized="1"
     inkscape:current-layer="svg11" />
  <rect
     style="fill:#424c57;fill-opacity:1"
     width="56"
     height="56"
     x="4"
     y="4"
     rx="2.8"
     ry="2.8"
     id="rect1" />
  <path
     style="opacity:0.1;fill:#ffffff"
     d="M 6.8007812,4 C 5.2496034,4 4,5.2495828 4,6.8002056 L 4,7.8 C 4,6.2493772 5.2496034,4.9997944 6.8007812,4.9997944 l 50.3984378,0 C 58.749197,4.9997944 60,6.2493772 60,7.8 L 60,6.8002056 C 60,5.2495828 58.749197,4 57.199219,4 L 6.8007812,4 Z"
     id="path1" />
  <path
     style="opacity:0.2"
     d="m 4,57.2 0,0.999795 C 4,59.749454 5.2504035,61 6.8007812,61 L 57.199219,61 C 58.749197,61 60,59.749454 60,58.199795 L 60,57.2 c 0,1.54966 -1.250803,2.800205 -2.800781,2.800205 l -50.3984378,0 C 5.2504035,60.000205 4,58.74966 4,57.2 Z"
     id="path2" />
  <g
     style="opacity:0.2;fill:#8d5fd3"
     transform="matrix(1.9999714,0,0,2,5.72e-5,1)"
     id="g6">
    <rect
       width="6"
       height="6"
       x="5"
       y="5"
       rx=".75"
       ry=".75"
       id="rect2"
       style="fill:#8d5fd3" />
    <rect
       width="6"
       height="6"
       x="13"
       y="5"
       rx=".75"
       ry=".75"
       id="rect3"
       style="fill:#8d5fd3" />
    <rect
       width="6"
       height="6"
       x="5"
       y="13"
       rx=".75"
       ry=".75"
       id="rect4"
       style="fill:#8d5fd3" />
    <rect
       width="6"
       height="6"
       x="13"
       y="13"
       rx=".75"
       ry=".75"
       id="rect5"
       style="fill:#8d5fd3" />
    <rect
       width="6"
       height="6"
       x="5"
       y="21"
       rx=".75"
       ry=".75"
       id="rect6"
       style="fill:#8d5fd3" />
  </g>
  <g
     style="fill:#8d5fd3"
     transform="matrix(1.9999714,0,0,2,5.72e-5,1.146e-4)"
     id="g11">
    <rect
       width="6"
       height="6"
       x="5"
       y="5"
       rx=".75"
       ry=".75"
       id="rect7"
       style="fill:#8d5fd3" />
    <rect
       width="6"
       height="6"
       x="13"
       y="5"
       rx=".75"
       ry=".75"
       id="rect8"
       style="fill:#8d5fd3" />
    <rect
       width="6"
       height="6"
       x="5"
       y="13"
       rx=".75"
       ry=".75"
       id="rect9"
       style="fill:#8d5fd3" />
    <rect
       width="6"
       height="6"
       x="13"
       y="13"
       rx=".75"
       ry=".75"
       id="rect10"
       style="fill:#8d5fd3" />
    <rect
       width="6"
       height="6"
       x="5"
       y="21"
       rx=".75"
       ry=".75"
       id="rect11"
       style="fill:#8d5fd3" />
  </g>
</svg>
