<?xml version="1.0" encoding="UTF-8" standalone="no"?>
<svg
   width="62"
   height="62"
   version="1.1"
   id="svg5"
   sodipodi:docname="terminator-preferences.svg"
   inkscape:version="1.4.2 (unknown)"
   xmlns:inkscape="http://www.inkscape.org/namespaces/inkscape"
   xmlns:sodipodi="http://sodipodi.sourceforge.net/DTD/sodipodi-0.dtd"
   xmlns:xlink="http://www.w3.org/1999/xlink"
   xmlns="http://www.w3.org/2000/svg"
   xmlns:svg="http://www.w3.org/2000/svg">
  <defs
     id="defs5">
    <linearGradient
       id="linearGradient8"
       inkscape:collect="always">
      <stop
         style="stop-color:#2d3d53;stop-opacity:1;"
         offset="0"
         id="stop8" />
      <stop
         style="stop-color:#354864;stop-opacity:1;"
         offset="1"
         id="stop10" />
    </linearGradient>
    <linearGradient
       id="linearGradient4217">
      <stop
         style="stop-color:#000000;stop-opacity:1;"
         offset="0"
         id="stop2" />
      <stop
         style="stop-color:#000000;stop-opacity:0;"
         offset="1"
         id="stop4" />
    </linearGradient>
    <linearGradient
       id="linearGradient4161">
      <stop
         style="stop-color:#334545;stop-opacity:1;"
         offset="0"
         id="stop7" />
      <stop
         style="stop-color:#4d6868;stop-opacity:1"
         offset="1"
         id="stop9" />
    </linearGradient>
    <linearGradient
       id="a-1-2"
       y1="510.79999"
       y2="527.14001"
       gradientUnits="userSpaceOnUse"
       x2="0">
      <stop
         stop-color="#7cbaf8"
         id="stop2-2-7" />
      <stop
         offset="1"
         stop-color="#f4fcff"
         id="stop4-70-0" />
    </linearGradient>
    <linearGradient
       id="c"
       y1="503.79999"
       x1="400.57001"
       y2="519.79999"
       x2="416.57001"
       gradientUnits="userSpaceOnUse">
      <stop
         stop-color="#292c2f"
         id="stop12" />
      <stop
         offset="1"
         stop-opacity="0"
         id="stop14" />
    </linearGradient>
    <linearGradient
       id="b"
       y1="542.79999"
       x1="408.57001"
       y2="521.79999"
       x2="387.57001"
       gradientUnits="userSpaceOnUse"
       gradientTransform="translate(-384.57,-499.8)">
      <stop
         stop-color="#197cf1"
         id="stop7-8" />
      <stop
         offset="1"
         stop-color="#20bcfa"
         id="stop9-7" />
    </linearGradient>
    <linearGradient
       xlink:href="#linearGradient1389"
       id="linearGradient4503-5-6"
       y1="37"
       y2="4"
       x2="0"
       gradientUnits="userSpaceOnUse"
       gradientTransform="matrix(1.0218446,0,0,0.99999999,21.748946,8.2587777)" />
    <linearGradient
       id="linearGradient1389">
      <stop
         style="stop-color:#ffaaaa;stop-opacity:1"
         id="stop1385"
         offset="0" />
      <stop
         offset="1"
         style="stop-color:#ff5555;stop-opacity:1"
         id="stop1387" />
    </linearGradient>
    <linearGradient
       id="paint543_linear_890_11"
       x1="978.5"
       y1="298"
       x2="978.5"
       y2="304"
       gradientUnits="userSpaceOnUse"
       gradientTransform="matrix(0.75000004,0,0,0.75000004,-717.38333,-173.49123)">
      <stop
         offset="0.189495"
         stop-color="#EFF2F6"
         id="stop1829" />
      <stop
         offset="0.850463"
         stop-color="#B7C6CD"
         id="stop1830" />
    </linearGradient>
    <linearGradient
       inkscape:collect="always"
       xlink:href="#linearGradient8"
       id="linearGradient10"
       x1="31.5"
       y1="59.017544"
       x2="31.5"
       y2="4.9824562"
       gradientUnits="userSpaceOnUse" />
    <linearGradient
       id="linearGradient4144">
      <stop
         style="stop-color:#c83771;stop-opacity:1"
         offset="0"
         id="stop1141" />
      <stop
         style="stop-color:#de87aa;stop-opacity:1"
         offset="1"
         id="stop1143" />
    </linearGradient>
    <linearGradient
       id="c-0"
       gradientUnits="userSpaceOnUse"
       x1="10"
       x2="24"
       y1="10"
       y2="24"
       gradientTransform="translate(59.728813,26.237288)">
      <stop
         offset="0"
         stop-color="#292c2f"
         id="stop12-2" />
      <stop
         offset="1"
         stop-opacity="0"
         id="stop14-3" />
    </linearGradient>
    <linearGradient
       id="d"
       gradientUnits="userSpaceOnUse"
       x1="24"
       x2="24"
       y1="25"
       y2="7"
       gradientTransform="translate(59.728813,26.237288)">
      <stop
         offset="0"
         stop-color="#bb9d71"
         id="stop2-7" />
      <stop
         offset="1"
         stop-color="#f9f2e7"
         id="stop4-5" />
    </linearGradient>
  </defs>
  <sodipodi:namedview
     id="namedview5"
     pagecolor="#ffffff"
     bordercolor="#000000"
     borderopacity="0.25"
     inkscape:showpageshadow="2"
     inkscape:pageopacity="0.0"
     inkscape:pagecheckerboard="0"
     inkscape:deskcolor="#d1d1d1"
     inkscape:zoom="8.2643105"
     inkscape:cx="25.289466"
     inkscape:cy="27.770012"
     inkscape:window-width="1920"
     inkscape:window-height="998"
     inkscape:window-x="0"
     inkscape:window-y="0"
     inkscape:window-maximized="1"
     inkscape:current-layer="svg5" />
  <rect
     style="opacity:0.2;stroke-width:0.9823"
     width="55"
     height="55.017544"
     x="4"
     y="4.9824562"
     rx="8.25"
     ry="8.2526312"
     id="rect1" />
  <rect
     style="fill:url(#linearGradient10);stroke-width:0.9823"
     width="55"
     height="55.017544"
     x="4"
     y="4"
     rx="8.25"
     ry="8.2526312"
     id="rect2" />
  <path
     d="m 27.481992,38.452775 c 0.0012,0.359894 -0.144053,0.705314 -0.40221,0.959551 l -10.936893,10.79739 c -2.268457,2.220515 -5.651928,-1.119825 -3.402677,-3.359324 l 8.506864,-8.397618 -8.506864,-8.397684 c -0.937076,-0.92872 -0.937076,-2.430629 0,-3.359286 v 0 c 0.939607,-0.927739 2.463087,-0.927739 3.402677,0 l 10.936893,10.797308 c 0.258024,0.254336 0.402818,0.599674 0.40221,0.959663 z m -1.37419,0 z"
     id="path4-3-9-2-3-4-0"
     style="color:#d6dbf1;fill:#00aad4;fill-opacity:1;stroke-width:0.892437"
     sodipodi:nodetypes="ccccccsscccccccccccc"
     class="ColorScheme-Text" />
  <path
     d="m 30.321796,47.465375 h 14.838405 c 3.786398,0.01449 3.786398,4.520172 0,4.534625 H 30.321796 c -3.786417,-0.01452 -3.786417,-4.520163 0,-4.534625 z m 14.838405,0.906916 z"
     id="path8-6-7-36-2-9-3-6-5-3"
     style="color:#d6dbf1;fill:#00aad4;fill-opacity:1;stroke-width:0.664698"
     sodipodi:nodetypes="cccccccccc"
     class="ColorScheme-Text" />
  <path
     style="opacity:0.1;fill:#ffffff;stroke-width:0.9823"
     d="M 12.248466,4 C 7.6779652,4 4,7.6791384 4,12.251097 v 0.982456 C 4,8.6615945 7.6779652,4.9824561 12.248466,4.9824561 H 50.751534 C 55.322034,4.9824561 59,8.6615945 59,13.233553 V 12.251097 C 59,7.6791384 55.322034,4 50.751534,4 Z"
     id="path4" />
  <path
     fill-rule="evenodd"
     clip-rule="evenodd"
     d="M 39.846368,19.921794 C 39.53453,19.8 39.139087,19.8 38.348397,19.8 c -0.790729,0 -1.186087,0 -1.49792,0.121854 -0.41582,0.162396 -0.746178,0.473885 -0.918409,0.865916 -0.07857,0.17894 -0.109482,0.387102 -0.121542,0.690698 -0.01756,0.446156 -0.260495,0.859114 -0.670464,1.082343 -0.410102,0.223202 -0.910761,0.214925 -1.329394,0.0064 -0.284876,-0.141871 -0.491438,-0.220799 -0.695149,-0.246145 -0.446221,-0.05539 -0.897516,0.05865 -1.254594,0.316936 -0.267788,0.193872 -0.465485,0.516563 -0.860855,1.162184 -0.395362,0.645621 -0.593016,0.968447 -0.637055,1.283965 -0.05865,0.420709 0.06203,0.84617 0.336148,1.182869 0.125192,0.153602 0.300837,0.282795 0.573612,0.444393 0.401007,0.237598 0.659067,0.642324 0.659036,1.08879 -3.1e-5,0.446484 -0.257965,0.851121 -0.659036,1.088633 -0.272837,0.161598 -0.448618,0.290878 -0.573676,0.444564 -0.273983,0.336638 -0.394925,0.762077 -0.336177,1.182786 0.04397,0.315516 0.241691,0.638396 0.637078,1.283991 0.395366,0.645594 0.593027,0.968471 0.86086,1.162161 0.357075,0.258397 0.808335,0.372315 1.254566,0.316957 0.203804,-0.02523 0.41026,-0.104273 0.695109,-0.246144 0.418692,-0.208526 0.919364,-0.217052 1.329498,0.0064 0.410134,0.223196 0.652809,0.63623 0.670502,1.082467 0.01218,0.303518 0.0429,0.511677 0.121551,0.690638 0.172346,0.391998 0.502585,0.703514 0.918429,0.865914 C 37.16231,35.8 37.557668,35.8 38.348397,35.8 c 0.79069,0 1.186133,0 1.497971,-0.121861 0.415816,-0.162398 0.746161,-0.47392 0.918326,-0.865917 0.07866,-0.178934 0.10947,-0.387128 0.121573,-0.690713 0.01763,-0.446172 0.260266,-0.859129 0.670393,-1.082387 0.410153,-0.2232 0.910794,-0.214939 1.329547,-0.0064 0.284834,0.141862 0.491331,0.220796 0.695039,0.24612 0.44622,0.05542 0.897508,-0.05867 1.254553,-0.316867 0.267797,-0.193869 0.465523,-0.516566 0.860868,-1.162233 0.395345,-0.645593 0.593012,-0.9684 0.637124,-1.283919 0.05867,-0.420706 -0.06253,-0.846234 -0.336154,-1.182871 -0.125166,-0.153599 -0.300878,-0.282879 -0.573718,-0.444477 -0.40093,-0.237598 -0.658954,-0.642234 -0.658954,-1.088702 0,-0.44649 0.257989,-0.851033 0.658954,-1.088563 0.27284,-0.161598 0.448646,-0.29079 0.573773,-0.444549 0.273987,-0.33661 0.394884,-0.762104 0.336211,-1.18282 -0.04385,-0.315543 -0.241689,-0.638349 -0.637144,-1.283973 -0.39538,-0.645583 -0.592993,-0.968387 -0.860881,-1.162145 -0.357049,-0.258397 -0.808318,-0.372345 -1.254557,-0.316924 -0.203783,0.02522 -0.41028,0.104254 -0.695057,0.24613 -0.41872,0.208523 -0.919427,0.217068 -1.329519,-0.0064 -0.410116,-0.223144 -0.652757,-0.636184 -0.670577,-1.082365 -0.01178,-0.303573 -0.0426,-0.511676 -0.121545,-0.690634 -0.17229,-0.392007 -0.502513,-0.703472 -0.918351,-0.865869 z m -1.497971,10.278134 c 1.405871,0 2.545536,-1.074483 2.545536,-2.399987 0,-1.325514 -1.139665,-2.399982 -2.545536,-2.399982 -1.405867,0 -2.545508,1.074468 -2.545508,2.399982 0,1.325504 1.139641,2.399987 2.545508,2.399987 z"
     id="path1"
     style="fill:#00aad4;fill-opacity:1;stroke-width:0.678125" />
</svg>
