<?xml version="1.0" encoding="UTF-8" standalone="no"?><!DOCTYPE svg PUBLIC "-//W3C//DTD SVG 1.1//EN" "http://www.w3.org/Graphics/SVG/1.1/DTD/svg11.dtd"><svg width="100%" height="100%" viewBox="0 0 352 331" version="1.1" xmlns="http://www.w3.org/2000/svg" xmlns:xlink="http://www.w3.org/1999/xlink" xml:space="preserve" xmlns:serif="http://www.serif.com/" style="fill-rule:evenodd;clip-rule:evenodd;stroke-linecap:round;stroke-linejoin:round;stroke-miterlimit:1.5;"><rect id="VolumLogo" x="0" y="0" width="352" height="331" style="fill:none;"/><path d="M222.397,69.902c0,0 7.385,-7.149 11.221,-12.555c5.033,-7.095 12.405,-15.694 19.381,-15.694l66.304,0c10.482,0 19.022,13.207 19.022,19.512l0,13.97l-122.048,0l6.12,-5.231Z" style="fill:url(#_Linear1);stroke:#0f45c2;stroke-width:0.75px;"/><path d="M155.592,129.54c0,0 9.062,-18.175 18.833,-40.805c5.33,-15.392 14.379,-18.72 23.018,-18.833l129.74,0c10.353,0.389 25.471,13.774 13.602,35.574c-11.016,25.263 -82.657,174.73 -82.657,174.73c0,0 -5.686,12.943 -18.833,14.648l-83.703,-165.314Z" style="fill:url(#_Linear2);"/><path d="M32.13,41.004l64.87,0c0,0 14.696,1.134 25.111,21.816c10.347,20.548 106.722,212.208 106.722,212.208c0,0 7.964,14.345 25.111,11.9c0,0 -5.399,7.7 -15.694,7.933c-10.295,0.233 -102.536,0 -102.536,0c0,0 -18.376,-0.759 -29.296,-23.799c-10.92,-23.04 -97.305,-194.359 -97.305,-194.359c-6.399,-13.335 -1.272,-35.756 23.018,-35.699Z" style="fill:url(#_Linear3);"/><path d="M170.24,98.152c0,0 7.942,-23.018 26.157,-23.018c18.215,0 107.07,-0.349 130.786,0c5.084,0.201 20.982,5.692 11.509,27.204c-13.257,29.11 -87.888,184.147 -87.888,184.147c2.844,-0.216 3.8,0.787 7.324,-6.278l83.703,-176.823c5.924,-9.069 7.47,-31.015 -14.648,-33.481l-130.786,0c-12.235,1.61 -17.436,4.728 -26.157,28.25Z" style="fill:url(#_Linear4);"/><path d="M86.537,40.999c0,0 21.653,5.027 30.342,21.799c8.689,16.772 104.629,212.045 104.629,212.045c0,0 15.028,26.647 32.435,11.89c0,0 -15.446,5.293 -26.157,-14.863c-6.959,-13.096 -106.722,-211.054 -106.722,-211.054c0,-0 -8.394,-21.417 -34.528,-19.817Z" style="fill:url(#_Linear5);"/><defs><linearGradient id="_Linear1" x1="0" y1="0" x2="1" y2="0" gradientUnits="userSpaceOnUse" gradientTransform="matrix(0,-31.388712,30.601688,0,282.58065,74.087055)"><stop offset="0" style="stop-color:#2f6eea;stop-opacity:1"/><stop offset="0.17" style="stop-color:#206bec;stop-opacity:1"/><stop offset="0.5" style="stop-color:#1e6aec;stop-opacity:1"/><stop offset="0.72" style="stop-color:#2675f4;stop-opacity:1"/><stop offset="1" style="stop-color:#2878f6;stop-opacity:1"/></linearGradient><linearGradient id="_Linear2" x1="0" y1="0" x2="1" y2="0" gradientUnits="userSpaceOnUse" gradientTransform="matrix(70.101457,-128.69372,152.699807,83.177944,197.443765,205.919647)"><stop offset="0" style="stop-color:#0334b7;stop-opacity:1"/><stop offset="1" style="stop-color:#489bfa;stop-opacity:1"/></linearGradient><linearGradient id="_Linear3" x1="0" y1="0" x2="1" y2="0.038" gradientUnits="userSpaceOnUse" gradientTransform="matrix(106.721622,234.02355,-246.924536,101.145772,62.472302,49.928608)"><stop offset="0" style="stop-color:#a3cefc;stop-opacity:1"/><stop offset="1" style="stop-color:#1460ea;stop-opacity:1"/></linearGradient><linearGradient id="_Linear4" x1="0" y1="0" x2="1" y2="0" gradientUnits="userSpaceOnUse" gradientTransform="matrix(-68.008877,153.80469,-153.80469,-68.008877,275.915546,70.948184)"><stop offset="0" style="stop-color:#a3cefc;stop-opacity:1"/><stop offset="0.58" style="stop-color:#3564cd;stop-opacity:1"/><stop offset="1" style="stop-color:#0334b7;stop-opacity:1"/></linearGradient><linearGradient id="_Linear5" x1="0" y1="0" x2="1" y2="0.04" gradientUnits="userSpaceOnUse" gradientTransform="matrix(61.731134,124.848675,-131.832592,58.460888,149.314406,122.249938)"><stop offset="0" style="stop-color:#a5d0fb;stop-opacity:1"/><stop offset="0.66" style="stop-color:#fcfeff;stop-opacity:1"/><stop offset="1" style="stop-color:#a3cefc;stop-opacity:0.49"/></linearGradient></defs></svg>