<?xml version="1.0" encoding="UTF-8" standalone="no"?>
<svg
   width="62"
   height="62"
   version="1.1"
   id="svg7"
   sodipodi:docname="taxes-finances.svg"
   inkscape:version="1.4.2 (unknown)"
   xmlns:inkscape="http://www.inkscape.org/namespaces/inkscape"
   xmlns:sodipodi="http://sodipodi.sourceforge.net/DTD/sodipodi-0.dtd"
   xmlns:xlink="http://www.w3.org/1999/xlink"
   xmlns="http://www.w3.org/2000/svg"
   xmlns:svg="http://www.w3.org/2000/svg">
  <defs
     id="defs7">
    <linearGradient
       id="linearGradient1"
       inkscape:collect="always">
      <stop
         style="stop-color:#2ca05a;stop-opacity:1"
         offset="0"
         id="stop1" />
      <stop
         style="stop-color:#5fd38d;stop-opacity:1"
         offset="1"
         id="stop2" />
    </linearGradient>
    <linearGradient
       id="paint1_linear_42_193"
       x1="32.166599"
       y1="53"
       x2="32.166599"
       y2="11.3334"
       gradientUnits="userSpaceOnUse">
      <stop
         stop-color="#00B59C"
         id="stop4" />
      <stop
         offset="1"
         stop-color="#9CFFAC"
         id="stop5" />
    </linearGradient>
    <linearGradient
       inkscape:collect="always"
       xlink:href="#linearGradient1"
       id="linearGradient2"
       x1="31"
       y1="59"
       x2="31"
       y2="3.9824562"
       gradientUnits="userSpaceOnUse" />
  </defs>
  <sodipodi:namedview
     id="namedview7"
     pagecolor="#ffffff"
     bordercolor="#000000"
     borderopacity="0.25"
     inkscape:showpageshadow="2"
     inkscape:pageopacity="0.0"
     inkscape:pagecheckerboard="0"
     inkscape:deskcolor="#d1d1d1"
     inkscape:zoom="6.0546875"
     inkscape:cx="21.80129"
     inkscape:cy="57.55871"
     inkscape:window-width="1920"
     inkscape:window-height="998"
     inkscape:window-x="0"
     inkscape:window-y="0"
     inkscape:window-maximized="1"
     inkscape:current-layer="svg7" />
  <path
     style="opacity:0.2;stroke-width:0.9823"
     d="M 31,3.9824562 A 27.5,27.508772 0 0 0 3.4999999,31.491228 27.5,27.508772 0 0 0 31,59 27.5,27.508772 0 0 0 58.5,31.491228 27.5,27.508772 0 0 0 31,3.9824562 Z"
     id="path1" />
  <path
     style="fill:url(#linearGradient2);fill-opacity:1;stroke-width:0.9823"
     d="M 31,3 A 27.5,27.508772 0 0 0 3.4999999,30.508772 27.5,27.508772 0 0 0 31,58.017544 27.5,27.508772 0 0 0 58.5,30.508772 27.5,27.508772 0 0 0 31,3 Z"
     id="path2" />
  <path
     style="opacity:0.2;fill:#ffffff;stroke-width:0.9823"
     d="M 31,3 A 27.5,27.508772 0 0 0 3.4999999,30.508772 27.5,27.508772 0 0 0 3.5211007,30.907895 27.5,27.508772 0 0 1 31,3.9824562 27.5,27.508772 0 0 1 58.4789,31.076754 27.5,27.508772 0 0 0 58.5,30.508772 27.5,27.508772 0 0 0 31,3 Z"
     id="path6" />
  <path
     d="m 32.875521,16.205336 c -0.02365,0.534542 0.373224,0.989655 0.896905,1.082291 1.950373,0.345341 3.59293,1.135716 4.927471,2.371121 1.342352,1.212829 2.101225,2.901433 2.276418,5.065713 0.04499,0.554904 -0.408984,1.007196 -0.962213,1.007196 h -5.163767 c -0.542611,0 -0.957708,-0.446343 -1.122986,-0.966373 -0.14354,-0.451584 -0.390055,-0.792793 -0.739641,-1.023826 -0.540306,-0.408341 -1.157843,-0.612461 -1.852608,-0.612461 -1.85261,0 -2.778965,0.578391 -2.778965,1.735174 0,0.64643 0.32164,1.105676 0.964919,1.377837 0.643281,0.27216 1.69825,0.561355 3.164811,0.867586 1.801324,0.340201 3.30655,0.748442 4.515881,1.224822 1.20933,0.44221 2.264501,1.258794 3.165011,2.449546 0.900511,1.156783 1.350868,2.789847 1.350868,4.89929 0,3.095876 -0.797638,5.392406 -2.393016,6.889288 -1.375409,1.311713 -3.155998,2.14019 -5.341365,2.485431 -0.528987,0.08357 -0.931064,0.541094 -0.907324,1.079468 l 0.21987,4.976504 c 0.02534,0.573755 -0.430021,1.052757 -1.00068,1.052757 h -2.273314 c -0.568356,0 -1.022918,-0.475272 -1.000981,-1.04681 l 0.195028,-5.082041 c 0.01985,-0.518414 -0.355598,-0.962845 -0.860646,-1.066868 -2.07328,-0.426991 -3.820312,-1.311613 -5.241196,-2.653464 -1.41818,-1.369069 -2.21602,-3.193954 -2.393518,-5.474357 -0.04325,-0.555005 0.410289,-1.007094 0.963518,-1.007094 h 5.935762 c 0.112088,0 0.203041,0.09153 0.203041,0.204323 0.02574,1.156882 0.385948,1.973364 1.080714,2.449444 0.72041,0.44251 1.479484,0.663567 2.277222,0.663567 2.135785,0 3.203577,-0.663567 3.203577,-1.9904 0,-0.680403 -0.334562,-1.173718 -1.003686,-1.479748 -0.668721,-0.306431 -1.762457,-0.629698 -3.280604,-0.969696 -1.826967,-0.40824 -3.332195,-0.850451 -4.51588,-1.326934 -1.157944,-0.476381 -2.17425,-1.275827 -3.049119,-2.39854 -0.874867,-1.156783 -1.312302,-2.755776 -1.312302,-4.797079 0,-2.857886 0.72041,-5.001201 2.161427,-6.430143 1.277245,-1.244379 2.92521,-2.050075 4.944,-2.417289 0.516968,-0.09393 0.907022,-0.543615 0.886687,-1.071908 L 28.820815,11.213611 C 28.798879,10.642073 29.25344,10.1667 29.821796,10.1667 h 2.273314 c 0.570659,0 1.026023,0.479003 1.00068,1.052758 z"
     id="path2-3"
     style="fill:#aaffcc;stroke-width:0.999995;fill-opacity:1" />
</svg>
